Coordinates
version=1
nRows=21
nColumns=24
inDegrees=yes

Units are S.I. units (second, meters, Newtons, ...)
If the header above contains a line with 'inDegrees', this indicates whether rotational values are in degrees (yes) or radians (no).

endheader
time	pelvis_tilt	pelvis_list	pelvis_rotation	pelvis_tx	pelvis_ty	pelvis_tz	hip_flexion_r	hip_adduction_r	hip_rotation_r	knee_angle_r	ankle_angle_r	subtalar_angle_r	mtp_angle_r	hip_flexion_l	hip_adduction_l	hip_rotation_l	knee_angle_l	ankle_angle_l	subtalar_angle_l	mtp_angle_l	lumbar_extension	lumbar_bending	lumbar_rotation
1.0	5.507041730123522	1.1548835281643075	2.5232830586285258	0.5874773920912396	1.07580913792059	0.0271085017339863	16.668560204651524	-1.8759973928048534	-12.539244672656686	-29.809656652367444	3.0380809836102713	-9.463757351170527e-06	3.814046786562653e-11	12.607062620354068	-0.5853687134349017	-6.552183117315854	-59.31166918871337	4.6322494293615115	-3.2198768901590365e-06	2.0391952648338274e-15	-17.117291250511744	0.8259902405905803	-1.8178275288733694
1.017	4.772500181854871	2.410416705693713	5.9711351892384155	0.5933876136642491	1.040476973193635	0.01771261684931063	27.293895377860846	-0.9797639586329303	-9.532682407636685	-8.593853321348856	2.12236628040995	-3.969573352252906e-06	9.226010935832817e-11	-10.179326994437819	0.8804203639068189	4.174689189264283	-58.83285393083389	10.83427971634265	3.2185673376546828e-06	1.3487990987105367e-17	-15.318031174878696	1.8528734049612245	-8.16652904069834
1.033	5.627405746944412	3.4748926349987306	3.936327436660888	0.5946084965061009	1.0549022573343956	0.006346590573091795	27.99143149437399	-5.111240179773196	-13.926079805118013	-26.60636514664276	-4.033819373849854	-6.3529419748382185e-06	-9.09440908809735e-11	-5.891589790781353	3.5620541022848506	0.5246856506551021	-55.39862837542591	9.506895987030198	-1.3332171192833259e-08	1.13225610145771e-15	-15.835380434864698	-1.714389727704779	-7.070210770072818
1.05	4.939143059819262	-1.742715715905071	-3.52060950970614	0.5932081391842019	1.0410764880373364	0.08669261266312586	-34.004394126502476	6.827230789642666	-0.898073175488924	4.579144488136928	7.855763267685829	4.7124117902387445e-06	7.824352373131358e-10	46.29361380023417	-8.75212202434046	-14.700826232146598	-59.58709494707045	-8.681824353244805	-7.834690566097727e-06	6.825459592194639e-16	-17.376958185186936	1.5321479292168905	10.526503305950285
1.067	5.072854142176477	-3.8200234761718317	-4.199687755455976	0.573067556896616	1.0550845862252312	0.06378171890061209	-26.49734722456112	6.190613279554814	-0.9046874471355975	-9.651552969345653	16.92931676862424	-4.2043713590381937e-07	1.097151182474126e-11	39.525152859601235	-7.904909979219479	-14.392160460350135	-24.468544551890446	-4.306554055203627	-1.1855292939490283e-05	-6.674567280960682e-16	-18.468938280800618	2.1060372931092766	8.78441173834339
1.083	5.469941623575155	-1.5878300520595734	-1.7414200599617944	0.5920193200447675	1.0515714667877354	0.06228747536298708	-15.981195966518683	3.262047753288104	-2.9485796604400054	-25.604759605179176	6.290777110840699	-4.372245821902731e-06	2.2617980171147047e-10	31.415004209781404	-6.57302145286593	-13.17972485553506	-41.353314924924184	-2.531182646180765	-9.261006943747462e-06	-3.6364525084159854e-16	-17.119306973966932	1.9859463038167706	5.332882387944805
1.1	4.280027316908276	-4.095096924290603	-3.7605231211582537	0.5808679075698192	1.0289671370554399	0.049455154952367644	-19.710918921481372	5.019251591096124	-1.5568969967093984	-11.94348440741234	9.788157627305122	2.4418109752676317e-06	3.476192349161432e-10	26.124254678336463	-6.696269190220452	-9.4616670664496	-16.29562767398867	-3.712933832745064	-5.607812370258939e-06	-1.1231394334270461e-15	-16.552495663421425	1.8237482095882243	5.783902618182876
1.117	3.88176115364686	-3.7582566270668636	-1.8826986677296325	0.580908813109186	1.0203266423990793	0.06377328140499751	-22.091945693580662	7.755548142587889	3.680325759455765	6.208743711096083	16.305345096746084	1.7173542863768533e-06	4.2039814326084994e-10	24.62287042617881	-8.217644248597608	-10.353578888729007	-21.65957703807255	-4.789406317646559	-4.413317669203568e-06	4.814590478779422e-16	-16.266412823522533	4.472708958740387	4.676877416802397
1.133	3.1847627580176354	-1.6995417462111835	2.1925793682437345	0.5660161692356053	1.0145896529006049	0.042355740757989174	0.6192578747485662	6.7021073391253205	-1.7820823449029275	37.48196069943725	13.940548786814295	-4.5599262987821223e-07	9.081527527112614e-10	-1.294612836753167	-4.3326485255243705	-3.940545753180185	-10.385786109527782	6.092516682518073	-1.9740503555629287e-07	1.6275342624203719e-15	-16.25238840402713	5.1985027767989855	-1.3974658048756314
1.15	3.9209682185904042	-5.1636647256450185	-2.1060091962294814	0.5713151813871975	1.0184526624924881	0.07233552338049398	-26.537047252317883	9.842370340040194	2.023384607038313	17.061960662792504	15.016915867148358	-2.1106505616332004e-06	1.5254569949423912e-09	24.80152824415933	-9.45070436089897	-13.133865601561782	0.4137294671645737	-3.9081712032243505	-3.189933613494137e-06	2.588736876693899e-16	-17.20520128783116	7.109939973978321	6.988161699157532
1.167	3.398945498983954	-9.320017549410286	-6.992032639908688	0.5577213703643666	1.03122456768384	0.09381279230856984	-53.18161637189361	15.791753529383985	6.38730411046688	25.435824627131396	28.49097808549649	6.95768979017872e-06	2.12000318132414e-10	52.74463397710032	-14.782224735199126	-17.217929158344255	3.9370366833013	-10.466383684669447	-9.721728055600729e-06	-3.460000653268255e-16	-18.876379831218166	7.30396314899829	15.555439189993622
1.183	4.859592257005952	-5.040345463255129	-1.3883441509682368	0.578584678099744	1.0221929228475044	0.05874903232135376	-17.804778305266	7.8774196184752645	2.366117682770668	-6.660961585571875	11.017141382714033	-3.1743402396994843e-06	1.0446777645697538e-09	16.735004818003716	-7.924766318155112	-8.933257735781778	4.930898296568088	-0.41399395080852863	-1.1433914759041755e-06	8.245427060581314e-16	-17.348014953657497	6.67575184385026	4.104334365008112
1.2	4.449428671745885	-2.0512581461161625	-1.3817385401840718	0.5724478978145574	1.0180894873465314	0.03266408953272902	-5.617942479317945	3.2725061263203075	-0.583388096974871	3.913659276955909	8.082330994028904	-1.0758419674532605e-06	-6.422869226454945e-10	3.317932871194728	-2.550850533578452	-3.7812427857345368	7.752984106932717	7.094072287716112	-1.970519163518277e-06	-4.0026528086660907e-16	-16.945520731791042	1.6505735253083933	0.5269801062367758
1.217	5.469943144821913	-3.8225661094615306	-4.925601828113315	0.5862025104079713	1.026997404893258	0.004820142477040434	-2.0695250379556143	-2.6199479339625897	-3.8165145107469822	-58.895941256135615	3.4333197860618974	-4.1189021164921305e-06	4.0400884746865365e-10	8.261901692051959	-0.4604975333491872	-1.8759003178137874	8.213371525577449	1.2837427542723838	-5.47467980060117e-07	-1.4135173792152422e-15	-16.316952753437015	-1.7606854986014198	0.15478919651861212
1.233	3.6279380407284774	-5.293817755249378	-2.4884061339141983	0.5726621251876903	0.9941761035669209	0.07450619992228302	-32.63736403818313	11.343471912803082	8.742534042528389	33.08450429506739	22.112121570833587	4.756409960033284e-06	8.402946059893683e-10	21.29795550712409	-9.909925175131121	-4.483710768940622	-6.185917210161259	-1.534532025948161	-1.5826688271405806e-07	-9.084232858001717e-16	-17.139154908449708	6.665197534546126	5.854599030186312
1.25	3.8858431165782865	-6.534277481425943	-8.05854755944063	0.5677492881110532	1.0061905085772835	0.06975138367859288	-44.461306009479884	8.916857531805018	7.141275630589291	12.215765439476657	19.766633611904567	4.76306860630351e-06	1.2094549498973585e-10	36.16186753033347	-9.352857352972133	-9.285785587950222	9.242993051035675	-4.516768023114963	-5.182598581126953e-06	-6.178610127957949e-16	-17.912609659965646	2.9626739412781893	11.614218881099383
1.267	4.86476192789796	-6.618072169591732	-8.602124144553425	0.5917334900008498	1.0147778237722973	0.07011094614950844	-45.029385770744355	6.291083769974053	8.054907637424305	-32.869513225561214	15.240208630087496	2.1278762055565332e-06	-1.4261920399907157e-10	44.27011451710736	-9.69735434598083	-10.725081008182459	-9.95030735897771	-10.309739452682127	-5.136452965328514e-06	1.3267059628927827e-15	-16.68813007467957	2.138193267156747	11.732543264299448
1.283	2.826885009352531	-5.340633152528452	-6.763948349193621	0.5775104457814103	0.9706717862449517	0.05831496005879615	-38.77823662234526	7.896760160973653	10.589980916442244	24.757758508082212	18.822529587326816	8.256191281340407e-06	-1.499600789510671e-10	20.916165961349158	-7.13822440922803	-2.1169149809701135	6.252235868565055	-5.252769428192352	1.206459730260017e-06	-1.0265678253546214e-15	-15.461265448329344	2.3675690618528735	7.235916123215897
1.3	3.2862448766495493	-4.441810762293313	-4.7859887087689605	0.5755965551653812	0.9986008212416352	0.054424327139515616	-29.121364124921307	7.293985738593575	7.654899604645207	14.342751861472845	20.025656515440446	5.702348273070499e-06	1.1612135531702246e-09	21.91872992283375	-6.652941859475185	-3.432779832972489	-6.8350017095982185	-2.674388602990695	-2.7293734414298046e-06	7.292356542647949e-16	-16.172710514538274	2.300187294295184	5.79807839149038
1.317	4.019370874503363	-6.063220173599426	-7.113632923254777	0.5820868001616009	1.0013010339458157	0.031797958295417254	-25.766892250144863	3.9547653300535086	6.2272295341078365	-23.04822401150959	16.331086129001775	4.724824604542909e-06	-1.4380513602348663e-10	20.00449768452601	-4.958501967559519	-2.3663079820725916	9.234265663242818	-5.507773215993285	-7.42535305912193e-07	1.8062161914668888e-16	-15.74878747563063	0.2237399093328132	4.721713649227758
1.333	4.407967223843123	-2.6510678751091223	-6.004162399332859	0.5910478533015177	0.9948865291023962	0.02975849699981939	-19.853391270429636	1.1454096945149568	5.4103644017797246	-19.43241967603207	8.752296936040551	5.010084881137995e-06	5.389595090780636e-10	12.537028687194733	-2.4493352292942836	-2.2842550918708904	-2.9605541253144274	-1.2585905062076983	-1.9645749992793445e-06	3.584878044849689e-16	-15.251202463306626	-2.431454581544132	2.774719666072261
